<svg
  version="1.0"
  xmlns="http://www.w3.org/2000/svg"
  width="1000.000000pt"
  height="850.000000pt"
  viewBox="0 0 1000.000000 850.000000"
  preserveAspectRatio="xMidYMid meet"
>
  <style>
    #sigil-path {
      stroke-dasharray: 15000;
      stroke-dashoffset: 15000;
      animation: draw 5s ease forwards 0.4s;
      fill-opacity: 0;
      stroke: #D1D1D1;
      stroke-width: 2;
      stroke-linecap: round;
      stroke-linejoin: round;
    }

    @keyframes draw {
      to {
        stroke-dashoffset: 0;
        fill-opacity: 1;
      }
    }
  </style>

  <g
    transform="translate(0.000000,850.000000) scale(0.100000,-0.100000)"
    fill="#D1D1D1"
    stroke="none"
  >
    <path
      id="sigil-path"
      d="M1516 7283 c-11 -11 -6 -23 9 -23 8 0 15 4 15 9 0 13 -16 22 -24 14z M1570 7165 c0 -8 5 -15 10 -15 6 0 10 7 10 15 0 8 -4 15 -10 15 -5 0 -10 -7 -10 -15z M1620 7059 c0 -16 133 -266 216 -406 40 -68 70 -123 66 -123 -4 0 -70 12 -147 25 -248 44 -537 43 -592 -2 -16 -13 -15 -14 12 -9 17 3 93 9 170 12 151 7 258 -2 459 -39 l120 -22 63 -109 c87 -151 179 -273 298 -396 56 -58 128 -139 161 -180 32 -41 86 -107 120 -146 49 -57 171 -214 253 -325 7 -11 18 -19 23 -19 5 0 -14 33 -42 73 -28 39 -67 96 -86 125 -19 28 -55 75 -79 102 -25 28 -45 55 -45 60 0 26 31 2 109 -82 47 -50 99 -103 115 -117 16 -14 59 -52 94 -84 127 -113 70 -46 -148 174 -217 220 -264 273 -222 250 79 -42 208 -146 328 -263 78 -76 145 -138 149 -138 5 0 1 8 -7 18 -8 9 -28 33 -44 52 -68 82 -221 233 -379 374 -93 84 -222 200 -285 259 -112 105 -283 286 -301 319 -8 15 -5 15 29 6 94 -25 246 -93 321 -143 44 -30 83 -55 86 -55 2 0 0 11 -6 24 -16 34 -85 81 -177 122 -98 42 -84 43 59 0 183 -54 274 -91 411 -167 145 -80 231 -118 268 -119 24 0 24 0 4 14 -11 8 -41 23 -65 32 -24 10 -105 51 -181 91 -75 41 -176 90 -224 109 -84 34 -409 129 -524 153 l-55 12 -98 172 c-54 95 -124 218 -154 275 -51 93 -73 121 -73 91z M2750 6760 c0 -5 7 -10 15 -10 8 0 15 5 15 10 0 6 -7 10 -15 10 -8 0 -15 -4 -15 -10z M2860 6734 c19 -9 89 -34 155 -55 156 -51 369 -155 417 -204 35 -36 59 -84 73 -148 4 -20 10 -27 20 -23 8 3 15 2 15 -3 0 -5 12 -11 28 -14 41 -9 97 -60 89 -81 -7 -18 -28 -18 -69 -1 -11 4 -18 3 -18 -4 0 -20 67 -43 90 -31 61 32 16 111 -77 135 -44 11 -47 14 -60 59 -8 27 -12 50 -9 53 23 23 384 -281 515 -435 66 -78 230 -304 282 -389 16 -26 29 -30 29 -9 0 30 -208 326 -317 452 -50 57 -353 325 -458 406 -91 69 -263 172 -346 208 -77 32 -328 100 -370 100 -21 -1 -20 -3 11 -16z M1050 6520 c0 -5 5 -10 10 -10 6 0 10 5 10 10 0 6 -4 10 -10 10 -5 0 -10 -4 -10 -10z M2450 6286 c0 -9 8 -16 19 -16 32 0 146 -56 227 -112 42 -29 91 -63 109 -75 38 -26 51 -51 29 -60 -29 -11 -120 4 -187 31 -38 16 -71 25 -75 21 -12 -11 40 -42 102 -61 34 -10 72 -24 86 -31 14 -7 44 -13 67 -13 47 0 63 17 63 68 0 32 -32 63 -146 140 -132 88 -294 148 -294 108z M2850 6257 c14 -14 94 -71 179 -126 162 -106 287 -161 362 -161 35 0 50 -9 126 -76 65 -56 119 -92 216 -141 70 -36 126 -67 124 -69 -2 -3 -58 16 -123 41 -153 58 -332 107 -374 103 -18 -2 -38 -11 -44 -20 -14 -24 -1 -34 19 -14 18 18 16 18 178 -26 127 -35 355 -124 442 -173 65 -36 103 -67 262 -213 159 -146 232 -271 217 -377 -14 -104 -43 -126 -142 -106 -103 20 -196 73 -287 162 -54 53 -85 76 -90 69 -5 -8 22 -42 68 -89 81 -82 97 -106 97 -144 0 -58 -122 -50 -301 18 -94 36 -219 121 -349 237 -58 51 -126 111 -151 133 -26 22 -83 73 -128 113 -45 39 -86 72 -92 72 -21 0 32 -58 133 -146 200 -174 232 -214 171 -214 -50 0 -116 43 -220 143 -57 55 -106 97 -109 94 -19 -19 168 -201 246 -240 64 -32 103 -34 128 -7 18 19 20 20 33 4 26 -32 207 -162 262 -187 99 -47 210 -80 288 -85 68 -4 79 -2 98 17 12 12 21 34 21 51 l0 30 33 -20 c44 -28 180 -70 224 -70 70 0 131 103 120 206 -11 103 -46 155 -232 337 -132 130 -217 199 -312 253 -42 24 -75 44 -72 44 17 0 156 -64 248 -114 58 -31 108 -56 111 -56 4 0 15 -9 25 -20 52 -58 29 59 -37 188 -52 102 -139 208 -205 250 -64 41 -253 132 -275 132 -36 0 -16 -19 58 -54 161 -76 314 -204 314 -261 0 -47 -17 -65 -60 -65 -77 0 -147 23 -289 93 -111 55 -160 87 -220 140 -212 188 -272 239 -278 233 -4 -3 26 -38 65 -77 l71 -72 -37 6 c-20 3 -62 14 -93 26 -54 21 -89 41 -306 178 -54 34 -107 65 -118 69 -17 6 -17 3 5 -19z m1350 -621 c0 -29 -18 -46 -49 -46 -43 0 -57 16 -22 23 20 4 35 16 43 31 13 29 28 25 28 -8z M2976 6073 c-14 -14 -2 -21 94 -57 100 -38 156 -75 97 -64 -21 4 -30 0 -38 -14 -8 -15 -17 -17 -47 -12 -55 10 -90 31 -115 69 -12 19 -28 35 -34 35 -16 0 -16 -5 2 -39 23 -45 70 -78 126 -90 46 -10 57 -9 91 9 21 11 47 20 58 20 48 0 31 39 -32 71 -59 30 -195 78 -202 72z M2786 5951 c-4 -6 22 -24 56 -41 79 -40 156 -99 204 -157 24 -29 40 -41 46 -35 14 14 -43 83 -117 142 -86 68 -177 111 -189 91z M3127 5873 c-13 -12 -7 -58 9 -83 9 -14 69 -78 133 -142 64 -65 113 -118 109 -118 -3 0 -27 17 -52 38 -61 51 -123 85 -131 73 -3 -6 4 -15 15 -21 11 -6 55 -39 98 -73 42 -34 97 -75 122 -91 24 -16 87 -70 140 -120 201 -193 253 -237 264 -226 8 8 -12 31 -69 82 -192 172 -565 577 -565 614 0 20 23 17 53 -6 27 -22 43 -15 24 11 -38 50 -126 86 -150 62z M4295 5460 c-6 -9 126 -199 215 -310 65 -80 83 -117 76 -154 -8 -40 -77 -150 -106 -168 -11 -7 -20 -16 -20 -20 0 -17 37 -7 75 20 34 23 50 27 105 27 79 -1 134 -27 181 -85 29 -36 59 -52 59 -32 0 7 -64 86 -195 242 -94 111 -139 169 -264 338 -62 83 -114 152 -116 152 -2 0 -7 -5 -10 -10z M5875 5431 c-7 -12 12 -24 25 -16 11 7 4 25 -10 25 -5 0 -11 -4 -15 -9z M5980 5425 c0 -10 7 -15 18 -13 21 4 19 22 -2 26 -10 2 -16 -3 -16 -13z M6062 5419 c3 -8 24 -17 49 -20 91 -13 259 -81 372 -152 70 -43 213 -171 274 -245 34 -40 89 -122 124 -182 35 -61 68 -110 73 -110 13 0 1 57 -34 153 -17 49 -30 93 -28 98 2 6 22 -6 45 -26 45 -38 53 -42 53 -22 0 6 -39 49 -87 95 -84 79 -86 82 -48 68 84 -30 158 -68 263 -136 100 -64 142 -83 142 -62 0 4 -15 16 -32 27 -18 10 -89 55 -158 100 -179 117 -387 221 -648 325 -182 74 -241 93 -296 97 -56 5 -68 4 -64 -8z M4475 5384 c17 -41 35 -68 124 -184 36 -47 101 -132 144 -190 93 -124 137 -171 194 -211 75 -52 66 -31 -24 59 -49 48 -113 121 -143 163 -30 42 -93 125 -139 185 -46 60 -99 132 -119 161 -40 61 -59 70 -37 17z M2963 5253 c-23 -4 -47 -35 -64 -81 -9 -25 -8 -25 23 9 40 44 59 52 96 38 39 -15 84 -61 170 -174 175 -231 275 -345 290 -331 5 6 4 7 -128 172 -53 65 -121 153 -152 195 -64 84 -149 169 -172 169 -8 0 -20 2 -28 4 -7 2 -23 1 -35 -1z M3400 5022 c0 -12 129 -72 134 -63 8 12 -11 26 -65 50 -47 22 -69 26 -69 13z M5290 4976 c-25 -8 -65 -21 -89 -29 -63 -20 -66 -39 -4 -22 113 29 147 35 216 35 148 -1 275 -44 363 -123 29 -26 57 -47 63 -47 19 0 12 23 -16 53 l-28 29 59 -7 c32 -4 79 -14 105 -22 30 -10 106 -17 219 -20 148 -5 172 -3 172 9 0 12 -26 16 -147 20 -142 6 -154 8 -290 52 -188 62 -260 75 -433 81 -108 3 -156 1 -190 -9z M3410 4962 c-19 -6 -30 -22 -30 -46 0 -16 2 -16 18 4 27 34 48 17 146 -114 101 -136 501 -552 627 -654 117 -93 277 -197 374 -243 229 -107 603 -198 997 -244 131 -15 278 -12 278 6 0 4 -39 10 -87 13 -494 32 -914 191 -1170 444 -86 84 -133 150 -194 271 -53 107 -69 155 -69 211 0 59 30 96 86 105 54 9 64 13 64 25 0 16 -62 11 -107 -9 -107 -49 -95 -185 36 -414 60 -103 196 -272 265 -327 48 -39 67 -60 52 -60 -2 0 -54 20 -114 44 -107 43 -305 150 -347 186 -11 10 -35 25 -53 34 -46 24 -108 81 -335 314 -116 119 -232 249 -280 315 -100 134 -119 152 -157 139z M3580 4910 c0 -5 4 -10 9 -10 6 0 13 5 16 10 3 6 -1 10 -9 10 -9 0 -16 -4 -16 -10z M3630 4902 c0 -4 13 -16 30 -25 35 -21 75 -87 84 -137 5 -27 38 -68 153 -190 81 -85 152 -156 159 -158 7 -2 15 7 19 19 7 22 8 22 23 -7 27 -51 64 -95 139 -160 109 -95 123 -82 47 41 -69 115 -94 174 -94 227 0 48 -23 86 -85 140 -49 44 -234 164 -320 209 -85 44 -155 63 -155 41z m209 -104 c216 -129 321 -221 321 -281 0 -50 26 -125 65 -189 19 -32 30 -58 26 -58 -17 0 -114 115 -133 157 -19 43 -39 64 -45 47 -16 -44 -22 -39 -158 101 -75 78 -137 151 -140 165 -3 14 -16 47 -30 73 -28 58 -28 58 94 -15z M5046 4892 c-3 -6 -1 -14 5 -17 15 -10 25 3 12 16 -7 7 -13 7 -17 1z M7000 4883 c0 -3 29 -37 65 -74 94 -97 92 -122 -26 -247 -38 -39 -69 -79 -69 -87 0 -22 28 -18 35 4 9 28 72 81 124 104 69 31 174 28 279 -7 46 -15 86 -26 89 -23 10 11 -8 26 -45 38 -56 18 -123 62 -284 186 -135 104 -168 125 -168 106z M4313 4793 c-32 -6 -90 -23 -129 -37 -39 -14 -84 -26 -98 -26 -16 0 -25 -4 -21 -10 8 -13 105 -13 105 -1 0 5 19 14 43 20 23 5 69 17 102 25 33 9 75 16 93 16 22 0 32 5 32 15 0 17 -35 17 -127 -2z M4603 4803 c-12 -2 -36 -17 -53 -33 -27 -25 -31 -35 -28 -71 4 -59 28 -64 28 -7 0 53 13 68 57 68 118 0 235 -75 272 -176 39 -103 20 -194 -39 -194 -11 0 -20 -4 -20 -9 0 -36 81 -6 104 38 20 38 20 103 0 170 -36 121 -211 238 -321 214z M6315 4801 c-68 -17 -83 -34 -87 -106 -8 -133 43 -176 282 -236 196 -49 331 -35 408 45 31 32 42 52 47 89 9 58 -5 61 -29 8 -19 -45 -89 -97 -145 -108 -47 -9 -183 -10 -247 -1 -156 23 -277 114 -277 209 0 56 18 70 97 76 36 3 66 10 66 14 0 5 -10 9 -22 9 -13 0 -32 2 -43 4 -11 3 -33 1 -50 -3z M5906 4783 c-14 -14 -3 -22 47 -37 75 -22 199 -81 221 -105 26 -29 7 -49 -52 -53 l-47 -3 30 -13 c38 -17 92 -7 105 19 8 14 7 28 -5 53 -13 28 -32 41 -104 74 -97 44 -186 74 -195 65z M7525 4711 c-3 -5 25 -31 62 -58 38 -26 73 -52 78 -59 6 -6 30 -26 55 -44 107 -81 226 -188 380 -344 91 -91 167 -171 169 -177 2 -6 -17 4 -41 23 -25 18 -80 60 -124 92 -43 33 -104 82 -134 109 -88 78 -429 302 -441 290 -8 -8 46 -48 178 -136 128 -85 230 -163 318 -243 72 -64 168 -146 214 -183 123 -96 165 -136 239 -226 37 -44 122 -141 191 -215 114 -125 182 -214 240 -315 29 -51 11 -31 -90 101 -42 54 -107 133 -146 174 -38 41 -97 111 -130 155 -106 139 -279 291 -346 302 -27 4 -39 1 -56 -18 -11 -12 -21 -30 -22 -38 0 -9 -2 -24 -4 -35 -2 -10 -1 -25 2 -33 5 -12 11 -6 22 18 22 48 52 48 130 2 73 -44 241 -213 345 -348 38 -50 111 -139 161 -200 159 -193 190 -238 350 -520 15 -27 49 -81 74 -120 25 -38 58 -92 73 -120 31 -56 34 -52 13 19 -40 132 -308 625 -466 856 -100 146 -312 412 -481 603 -164 186 -458 448 -693 618 -112 81 -112 81 -120 70z M3490 4685 c0 -9 5 -15 11 -13 6 2 11 8 11 13 0 5 -5 11 -11 13 -6 2 -11 -4 -11 -13z M4920 4676 c0 -7 21 -50 46 -95 38 -66 48 -95 54 -152 6 -49 15 -81 34 -109 14 -22 26 -43 26 -48 0 -9 17 -24 85 -74 28 -20 61 -48 75 -63 l25 -27 -55 27 c-65 33 -358 200 -447 256 -65 41 -78 45 -87 30 -10 -15 462 -290 594 -346 153 -65 430 -141 680 -186 108 -20 463 -18 510 2 l35 15 155 -89 c155 -90 276 -150 291 -145 17 6 -8 25 -86 67 -89 47 -157 107 -186 163 -26 51 -24 76 6 90 35 16 107 -6 309 -91 90 -38 211 -86 269 -105 126 -44 338 -135 410 -178 105 -62 277 -128 331 -128 42 1 23 11 -90 51 -235 82 -570 305 -640 424 -9 15 -15 17 -23 9 -8 -8 -3 -22 19 -52 16 -23 30 -44 30 -47 0 -10 -177 85 -195 105 -20 22 -13 70 10 70 9 0 15 10 15 26 0 30 -36 67 -121 125 -31 21 -59 45 -63 54 -13 34 -5 98 16 136 22 39 19 61 -7 44 -8 -6 -33 -23 -56 -40 -36 -26 -52 -30 -111 -32 -59 -1 -79 3 -146 34 l-78 35 -38 -26 c-21 -14 -53 -28 -72 -32 -19 -3 -34 -12 -34 -19 0 -18 130 -137 215 -197 120 -85 307 -168 380 -168 13 0 38 -12 56 -27 18 -15 68 -46 113 -70 l81 -42 -50 2 c-31 2 -81 17 -130 39 -236 106 -359 147 -401 132 -31 -11 -54 -36 -54 -58 0 -29 22 -90 40 -111 14 -17 13 -17 -10 -5 -14 7 -119 70 -235 138 -196 117 -683 364 -785 399 -159 54 -347 79 -412 54 -31 -12 -68 -65 -68 -96 1 -11 7 -36 14 -55 7 -19 17 -44 20 -55 13 -34 -76 67 -95 110 -22 48 -24 84 -5 111 11 14 34 21 97 29 45 6 84 15 86 21 4 12 -60 34 -98 34 -41 0 -127 47 -183 100 -56 53 -66 58 -66 36z m517 -287 c173 -23 218 -39 525 -187 165 -80 503 -270 495 -279 -8 -7 -243 16 -377 38 -172 27 -306 61 -494 126 -220 76 -260 98 -317 176 -33 45 -37 87 -11 109 34 31 62 33 179 17z m1284 -69 c156 -78 237 -125 318 -185 l63 -46 -21 -23 c-12 -12 -21 -30 -21 -38 0 -13 -8 -16 -37 -12 -149 18 -330 111 -492 254 l-81 72 52 27 c62 31 54 33 219 -49z M5072 4658 c8 -22 105 -68 187 -89 91 -23 144 -20 163 11 11 17 18 15 123 -39 62 -32 148 -73 191 -91 43 -18 116 -50 160 -71 57 -28 95 -39 126 -39 53 0 71 16 72 66 1 25 5 33 16 29 138 -39 234 -44 254 -13 8 13 5 22 -13 42 -27 28 -78 52 -89 41 -4 -4 -1 -10 7 -13 7 -2 28 -17 45 -33 l31 -28 -51 -1 c-66 0 -230 47 -369 105 -121 51 -133 55 -136 40 -1 -5 35 -29 80 -52 88 -44 151 -88 151 -104 0 -18 -81 -9 -172 21 -51 16 -185 75 -298 130 -112 55 -212 100 -222 100 -10 0 -18 -7 -18 -15 0 -8 9 -15 19 -15 11 0 33 -11 48 -24 l28 -24 -28 -7 c-38 -10 -158 19 -229 55 -63 32 -82 37 -76 18z M5285 4509 c-4 -6 -5 -12 -4 -13 2 -2 48 -6 102 -9 76 -5 98 -4 94 6 -2 6 -17 15 -33 18 -49 11 -152 10 -159 -2z M7212 4485 c-32 -14 -51 -40 -38 -52 3 -3 15 2 27 13 30 27 98 22 189 -13 90 -35 334 -189 445 -282 44 -37 100 -82 125 -100 25 -19 64 -53 88 -75 23 -22 42 -36 42 -31 -1 24 -65 91 -160 167 -57 46 -115 93 -130 105 -14 11 -92 64 -174 117 -205 133 -342 183 -414 151z M7057 4483 c-13 -13 -6 -79 13 -120 21 -48 102 -133 125 -133 24 0 18 10 -33 59 -57 55 -82 104 -82 160 0 38 -8 50 -23 34z M5520 4470 c0 -5 5 -10 10 -10 6 0 10 5 10 10 0 6 -4 10 -10 10 -5 0 -10 -4 -10 -10z M5595 4460 c-10 -16 3 -28 38 -36 17 -3 67 -20 110 -36 53 -21 82 -27 89 -20 13 13 7 16 -122 62 -64 23 -112 35 -115 30z M5866 4353 c-11 -11 -6 -23 9 -23 8 0 15 4 15 9 0 13 -16 22 -24 14z M5930 4315 c0 -9 5 -15 11 -13 6 2 11 8 11 13 0 5 -5 11 -11 13 -6 2 -11 -4 -11 -13z M7067 4313 c-12 -11 -7 -73 7 -101 30 -57 213 -201 237 -186 18 11 8 23 -43 52 -59 33 -153 113 -169 145 -6 11 -11 37 -11 59 1 36 -6 46 -21 31z M5990 4300 c0 -5 7 -10 15 -10 8 0 15 5 15 10 0 6 -7 10 -15 10 -8 0 -15 -4 -15 -10z M6046 4292 c-8 -13 0 -18 49 -27 22 -3 90 -31 151 -61 95 -47 116 -63 153 -110 23 -29 51 -59 62 -64 31 -17 23 8 -16 51 -32 36 -54 84 -43 95 3 2 29 -7 59 -21 34 -15 71 -25 99 -24 l45 0 -55 19 c-30 10 -88 37 -127 59 -40 21 -101 49 -135 61 -71 25 -231 39 -242 22z M7050 3645 c0 -8 5 -15 10 -15 6 0 10 7 10 15 0 8 -4 15 -10 15 -5 0 -10 -7 -10 -15z M8132 3451 c4 -13 18 -16 19 -4 0 4 -5 9 -11 12 -7 2 -11 -2 -8 -8z M9300 2385 c0 -9 5 -15 11 -13 6 2 11 8 11 13 0 5 -5 11 -11 13 -6 2 -11 -4 -11 -13z"
    ></path>
    <path d="M2443 1683 c9 -2 23 -2 30 0 6 3 -1 5 -18 5 -16 0 -22 -2 -12 -5z"
    ></path>
  </g>
</svg>
